<svg width="183" height="183" viewBox="0 0 183 183" fill="none" xmlns="http://www.w3.org/2000/svg">
<rect x="1.5" y="1.5" width="179.606" height="179.606" rx="18.5" fill="#FFCBC5" stroke="#E18C82" stroke-width="3"/>
<path d="M24.8 33.648H27.944C29.112 33.648 30.136 33.488 31.016 33.168C31.912 32.832 32.616 32.352 33.128 31.728C33.656 31.104 33.92 30.352 33.92 29.472C33.92 28.512 33.656 27.72 33.128 27.096C32.616 26.456 31.912 25.984 31.016 25.68C30.136 25.36 29.112 25.2 27.944 25.2H21.776V42H28.352C29.68 42 30.832 41.84 31.808 41.52C32.784 41.184 33.536 40.672 34.064 39.984C34.608 39.296 34.88 38.392 34.88 37.272C34.88 36.424 34.688 35.704 34.304 35.112C33.936 34.504 33.44 34.008 32.816 33.624C32.192 33.224 31.496 32.936 30.728 32.76C29.96 32.584 29.168 32.496 28.352 32.496H24.8V34.704H27.896C28.296 34.704 28.656 34.744 28.976 34.824C29.312 34.888 29.608 35 29.864 35.16C30.12 35.32 30.32 35.528 30.464 35.784C30.608 36.04 30.68 36.344 30.68 36.696C30.68 37.24 30.552 37.672 30.296 37.992C30.056 38.296 29.728 38.52 29.312 38.664C28.896 38.792 28.424 38.856 27.896 38.856H25.832V28.344H27.512C28.216 28.344 28.76 28.488 29.144 28.776C29.528 29.064 29.72 29.496 29.72 30.072C29.72 30.456 29.632 30.784 29.456 31.056C29.28 31.312 29.024 31.512 28.688 31.656C28.368 31.8 27.976 31.872 27.512 31.872H24.8V33.648ZM37.2335 25.2V36.48C37.2335 37.536 37.4015 38.456 37.7375 39.24C38.0895 40.024 38.5695 40.672 39.1775 41.184C39.8015 41.68 40.5215 42.056 41.3375 42.312C42.1535 42.568 43.0335 42.696 43.9775 42.696C44.9215 42.696 45.8015 42.568 46.6175 42.312C47.4495 42.056 48.1695 41.68 48.7775 41.184C49.4015 40.672 49.8815 40.024 50.2175 39.24C50.5695 38.456 50.7455 37.536 50.7455 36.48V25.2H46.6895V36.192C46.6895 37.04 46.4655 37.728 46.0175 38.256C45.5695 38.784 44.8895 39.048 43.9775 39.048C43.0815 39.048 42.4095 38.784 41.9615 38.256C41.5135 37.728 41.2895 37.04 41.2895 36.192V25.2H37.2335ZM56.8456 33.648H59.9896C61.1576 33.648 62.1816 33.488 63.0616 33.168C63.9576 32.832 64.6616 32.352 65.1736 31.728C65.7016 31.104 65.9656 30.352 65.9656 29.472C65.9656 28.512 65.7016 27.72 65.1736 27.096C64.6616 26.456 63.9576 25.984 63.0616 25.68C62.1816 25.36 61.1576 25.2 59.9896 25.2H53.8216V42H60.3976C61.7256 42 62.8776 41.84 63.8536 41.52C64.8296 41.184 65.5816 40.672 66.1096 39.984C66.6536 39.296 66.9256 38.392 66.9256 37.272C66.9256 36.424 66.7336 35.704 66.3496 35.112C65.9816 34.504 65.4856 34.008 64.8616 33.624C64.2376 33.224 63.5416 32.936 62.7736 32.76C62.0056 32.584 61.2136 32.496 60.3976 32.496H56.8456V34.704H59.9416C60.3416 34.704 60.7016 34.744 61.0216 34.824C61.3576 34.888 61.6536 35 61.9096 35.16C62.1656 35.32 62.3656 35.528 62.5096 35.784C62.6536 36.04 62.7256 36.344 62.7256 36.696C62.7256 37.24 62.5976 37.672 62.3416 37.992C62.1016 38.296 61.7736 38.52 61.3576 38.664C60.9416 38.792 60.4696 38.856 59.9416 38.856H57.8776V28.344H59.5576C60.2616 28.344 60.8056 28.488 61.1896 28.776C61.5736 29.064 61.7656 29.496 61.7656 30.072C61.7656 30.456 61.6776 30.784 61.5016 31.056C61.3256 31.312 61.0696 31.512 60.7336 31.656C60.4136 31.8 60.0216 31.872 59.5576 31.872H56.8456V33.648ZM72.4231 33.648H75.5671C76.7351 33.648 77.7591 33.488 78.6391 33.168C79.5351 32.832 80.2391 32.352 80.7511 31.728C81.2791 31.104 81.5431 30.352 81.5431 29.472C81.5431 28.512 81.2791 27.72 80.7511 27.096C80.2391 26.456 79.5351 25.984 78.6391 25.68C77.7591 25.36 76.7351 25.2 75.5671 25.2H69.3991V42H75.9751C77.3031 42 78.4551 41.84 79.4311 41.52C80.4071 41.184 81.1591 40.672 81.6871 39.984C82.2311 39.296 82.5031 38.392 82.5031 37.272C82.5031 36.424 82.3111 35.704 81.9271 35.112C81.5591 34.504 81.0631 34.008 80.4391 33.624C79.8151 33.224 79.1191 32.936 78.3511 32.76C77.5831 32.584 76.7911 32.496 75.9751 32.496H72.4231V34.704H75.5191C75.9191 34.704 76.2791 34.744 76.5991 34.824C76.9351 34.888 77.2311 35 77.4871 35.16C77.7431 35.32 77.9431 35.528 78.0871 35.784C78.2311 36.04 78.3031 36.344 78.3031 36.696C78.3031 37.24 78.1751 37.672 77.9191 37.992C77.6791 38.296 77.3511 38.52 76.9351 38.664C76.5191 38.792 76.0471 38.856 75.5191 38.856H73.4551V28.344H75.1351C75.8391 28.344 76.3831 28.488 76.7671 28.776C77.1511 29.064 77.3431 29.496 77.3431 30.072C77.3431 30.456 77.2551 30.784 77.0791 31.056C76.9031 31.312 76.6471 31.512 76.3111 31.656C75.9911 31.8 75.5991 31.872 75.1351 31.872H72.4231V33.648ZM84.9766 25.2V42H95.7766V38.52H89.0326V25.2H84.9766ZM99.9843 42H108.456V38.664H99.9843V42ZM99.9843 28.536H108.456V25.2H99.9843V28.536ZM99.9843 34.8H107.976V31.536H99.9843V34.8ZM97.2963 25.2V42H101.184V25.2H97.2963ZM116.553 28.824H121.161V42H125.217V28.824H129.849V25.2H116.553V28.824ZM134.014 42H142.486V38.664H134.014V42ZM134.014 28.536H142.486V25.2H134.014V28.536ZM134.014 34.8H142.006V31.536H134.014V34.8ZM131.326 25.2V42H135.214V25.2H131.326ZM148.067 38.76H156.947L156.683 35.664H148.355L148.067 38.76ZM152.459 31.368L154.835 36.816L154.691 37.848L156.707 42H161.315L152.459 24.144L143.627 42H148.211L150.299 37.68L150.107 36.792L152.459 31.368Z" fill="#E18C82"/>
<g clip-path="url(#clip0_61_308)">
<path d="M112.035 170.783H65.1805L58.0416 91.8536H118.6L112.035 170.783Z" fill="#9ACDD4" stroke="#588593" stroke-width="3" stroke-miterlimit="10"/>
<path d="M120.569 91.2857C120.077 74.0072 105.799 60.2168 88.3206 60.2168C70.7604 60.2168 56.4825 74.0072 55.9902 91.2857H120.569Z" fill="white" stroke="#588593" stroke-width="3" stroke-miterlimit="10"/>
<path d="M70.0219 168.755C72.1972 168.755 73.9606 167.012 73.9606 164.861C73.9606 162.711 72.1972 160.968 70.0219 160.968C67.8466 160.968 66.0832 162.711 66.0832 164.861C66.0832 167.012 67.8466 168.755 70.0219 168.755Z" fill="#588593" stroke="#588593" stroke-width="2" stroke-miterlimit="10"/>
<path d="M79.1302 168.755C81.3055 168.755 83.0689 167.012 83.0689 164.861C83.0689 162.711 81.3055 160.968 79.1302 160.968C76.9549 160.968 75.1915 162.711 75.1915 164.861C75.1915 167.012 76.9549 168.755 79.1302 168.755Z" fill="#588593" stroke="#588593" stroke-width="2" stroke-miterlimit="10"/>
<path d="M88.2385 168.755C90.4138 168.755 92.1772 167.012 92.1772 164.861C92.1772 162.711 90.4138 160.968 88.2385 160.968C86.0632 160.968 84.2998 162.711 84.2998 164.861C84.2998 167.012 86.0632 168.755 88.2385 168.755Z" fill="#588593" stroke="#588593" stroke-width="2" stroke-miterlimit="10"/>
<path d="M97.2648 168.755C99.4401 168.755 101.204 167.012 101.204 164.861C101.204 162.711 99.4401 160.968 97.2648 160.968C95.0895 160.968 93.326 162.711 93.326 164.861C93.326 167.012 95.0895 168.755 97.2648 168.755Z" fill="#588593" stroke="#588593" stroke-width="2" stroke-miterlimit="10"/>
<path d="M106.373 168.755C108.548 168.755 110.312 167.012 110.312 164.861C110.312 162.711 108.548 160.968 106.373 160.968C104.198 160.968 102.434 162.711 102.434 164.861C102.434 167.012 104.198 168.755 106.373 168.755Z" fill="#588593" stroke="#588593" stroke-width="2" stroke-miterlimit="10"/>
<path d="M70.0219 151.396C72.1972 151.396 73.9606 149.652 73.9606 147.502C73.9606 145.351 72.1972 143.608 70.0219 143.608C67.8466 143.608 66.0832 145.351 66.0832 147.502C66.0832 149.652 67.8466 151.396 70.0219 151.396Z" fill="#588593" stroke="#588593" stroke-width="2" stroke-miterlimit="10"/>
<path d="M79.2123 151.396C81.3876 151.396 83.151 149.652 83.151 147.502C83.151 145.351 81.3876 143.608 79.2123 143.608C77.037 143.608 75.2735 145.351 75.2735 147.502C75.2735 149.652 77.037 151.396 79.2123 151.396Z" fill="#588593" stroke="#588593" stroke-width="2" stroke-miterlimit="10"/>
<path d="M88.3206 151.396C90.4959 151.396 92.2593 149.652 92.2593 147.502C92.2593 145.351 90.4959 143.608 88.3206 143.608C86.1453 143.608 84.3818 145.351 84.3818 147.502C84.3818 149.652 86.1453 151.396 88.3206 151.396Z" fill="#588593" stroke="#588593" stroke-width="2" stroke-miterlimit="10"/>
<path d="M97.4289 151.396C99.6042 151.396 101.368 149.652 101.368 147.502C101.368 145.351 99.6042 143.608 97.4289 143.608C95.2536 143.608 93.4902 145.351 93.4902 147.502C93.4902 149.652 95.2536 151.396 97.4289 151.396Z" fill="#588593" stroke="#588593" stroke-width="2" stroke-miterlimit="10"/>
<path d="M106.947 151.396C109.123 151.396 110.886 149.652 110.886 147.502C110.886 145.351 109.123 143.608 106.947 143.608C104.772 143.608 103.009 145.351 103.009 147.502C103.009 149.652 104.772 151.396 106.947 151.396Z" fill="#588593" stroke="#588593" stroke-width="2" stroke-miterlimit="10"/>
<path d="M74.6171 160.075C76.7924 160.075 78.5558 158.332 78.5558 156.182C78.5558 154.031 76.7924 152.288 74.6171 152.288C72.4418 152.288 70.6783 154.031 70.6783 156.182C70.6783 158.332 72.4418 160.075 74.6171 160.075Z" fill="#588593" stroke="#588593" stroke-width="2" stroke-miterlimit="10"/>
<path d="M83.8895 160.075C86.0648 160.075 87.8282 158.332 87.8282 156.182C87.8282 154.031 86.0648 152.288 83.8895 152.288C81.7142 152.288 79.9508 154.031 79.9508 156.182C79.9508 158.332 81.7142 160.075 83.8895 160.075Z" fill="#588593" stroke="#588593" stroke-width="2" stroke-miterlimit="10"/>
<path d="M93.1619 160.075C95.3372 160.075 97.1007 158.332 97.1007 156.182C97.1007 154.031 95.3372 152.288 93.1619 152.288C90.9866 152.288 89.2232 154.031 89.2232 156.182C89.2232 158.332 90.9866 160.075 93.1619 160.075Z" fill="#588593" stroke="#588593" stroke-width="2" stroke-miterlimit="10"/>
<path d="M102.434 160.075C104.61 160.075 106.373 158.332 106.373 156.182C106.373 154.031 104.61 152.288 102.434 152.288C100.259 152.288 98.4956 154.031 98.4956 156.182C98.4956 158.332 100.259 160.075 102.434 160.075Z" fill="#588593" stroke="#588593" stroke-width="2" stroke-miterlimit="10"/>
<path d="M63.7035 81.8758C66.7396 73.5205 74.6991 67.112 83.5613 65.8952" stroke="#588593" stroke-width="3" stroke-miterlimit="10" stroke-linecap="round"/>
<path d="M58.0416 92.4214L59.4365 107.753C59.4365 107.753 61.2418 107.753 63.4573 107.753C72.3195 107.753 61.9803 123.49 70.0219 123.49C77.9814 123.49 67.2319 107.753 75.2735 107.753C77.4891 107.753 78.5558 107.753 79.2123 107.753C85.0383 107.753 78.3096 115.216 84.3818 115.216C89.7155 115.216 83.6433 107.753 88.2385 107.753C92.1772 107.753 117.123 107.753 117.123 107.753L118.518 91.8536L58.0416 92.4214Z" fill="white" stroke="#588593" stroke-width="3" stroke-miterlimit="10"/>
<path d="M112.363 113.918L110.886 133.144" stroke="white" stroke-width="3" stroke-miterlimit="10" stroke-linecap="round"/>
<path d="M122.702 93.7193H52.2976C51.2309 93.7193 50.4103 92.9081 50.4103 91.8536C50.4103 90.799 51.2309 89.9878 52.2976 89.9878H122.702C123.769 89.9878 124.59 90.799 124.59 91.8536C124.59 92.9081 123.769 93.7193 122.702 93.7193Z" fill="#588593" stroke="#588593" stroke-miterlimit="10"/>
</g>
<defs>
<clipPath id="clip0_61_308">
<rect width="75" height="113" fill="white" transform="translate(50 59)"/>
</clipPath>
</defs>
</svg>
