<svg width="248" height="176" viewBox="0 0 248 176" fill="none" xmlns="http://www.w3.org/2000/svg">
<rect width="248" height="176" rx="29" fill="#FFFCFA"/>
<path d="M27.096 29.432L31.68 36.44L36.288 29.432L37.296 38H41.568L38.856 20.36L31.68 30.608L24.528 20.36L21.816 38H26.088L27.096 29.432ZM47.127 29.6C47.127 28.608 47.319 27.736 47.703 26.984C48.103 26.216 48.655 25.616 49.359 25.184C50.079 24.752 50.919 24.536 51.879 24.536C52.855 24.536 53.695 24.752 54.399 25.184C55.103 25.616 55.647 26.216 56.031 26.984C56.415 27.736 56.607 28.608 56.607 29.6C56.607 30.592 56.407 31.472 56.007 32.24C55.623 32.992 55.071 33.584 54.351 34.016C53.647 34.448 52.823 34.664 51.879 34.664C50.919 34.664 50.079 34.448 49.359 34.016C48.655 33.584 48.103 32.992 47.703 32.24C47.319 31.472 47.127 30.592 47.127 29.6ZM42.831 29.6C42.831 30.896 43.047 32.088 43.479 33.176C43.927 34.264 44.551 35.208 45.351 36.008C46.167 36.808 47.127 37.432 48.231 37.88C49.335 38.312 50.551 38.528 51.879 38.528C53.191 38.528 54.399 38.312 55.503 37.88C56.607 37.432 57.559 36.808 58.359 36.008C59.175 35.208 59.799 34.264 60.231 33.176C60.679 32.088 60.903 30.896 60.903 29.6C60.903 28.304 60.679 27.12 60.231 26.048C59.783 24.976 59.151 24.048 58.335 23.264C57.519 22.48 56.559 21.88 55.455 21.464C54.367 21.032 53.175 20.816 51.879 20.816C50.599 20.816 49.407 21.032 48.303 21.464C47.199 21.88 46.239 22.48 45.423 23.264C44.607 24.048 43.967 24.976 43.503 26.048C43.055 27.12 42.831 28.304 42.831 29.6ZM67.3419 30.392L72.0459 38H76.7979L71.5419 30.392H67.3419ZM63.1419 21.2V38H67.1979V21.2H63.1419ZM65.6859 24.632H68.9739C69.5179 24.632 69.9819 24.72 70.3659 24.896C70.7659 25.072 71.0699 25.328 71.2779 25.664C71.4859 25.984 71.5899 26.376 71.5899 26.84C71.5899 27.304 71.4859 27.704 71.2779 28.04C71.0699 28.36 70.7659 28.608 70.3659 28.784C69.9819 28.944 69.5179 29.024 68.9739 29.024H65.6859V32.168H69.2619C70.7019 32.168 71.9019 31.936 72.8619 31.472C73.8219 31.008 74.5499 30.368 75.0459 29.552C75.5419 28.72 75.7899 27.768 75.7899 26.696C75.7899 25.608 75.5419 24.656 75.0459 23.84C74.5499 23.008 73.8219 22.36 72.8619 21.896C71.9019 21.432 70.7019 21.2 69.2619 21.2H65.6859V24.632ZM81.009 38H89.481V34.664H81.009V38ZM81.009 24.536H89.481V21.2H81.009V24.536ZM81.009 30.8H89.001V27.536H81.009V30.8ZM78.321 21.2V38H82.209V21.2H78.321ZM99.2572 21.2V38H103.385V21.2H99.2572ZM118.177 21.2V30.656L106.585 20.36V38H110.473V28.544L122.089 38.84V21.2H118.177ZM127.967 24.68H135.479V21.2H127.967V24.68ZM127.967 31.256H135.239V27.992H127.967V31.256ZM125.279 21.2V38H129.167V21.2H125.279ZM141.521 29.6C141.521 28.608 141.713 27.736 142.097 26.984C142.497 26.216 143.049 25.616 143.753 25.184C144.473 24.752 145.313 24.536 146.273 24.536C147.249 24.536 148.089 24.752 148.793 25.184C149.497 25.616 150.041 26.216 150.425 26.984C150.809 27.736 151.001 28.608 151.001 29.6C151.001 30.592 150.801 31.472 150.401 32.24C150.017 32.992 149.465 33.584 148.745 34.016C148.041 34.448 147.217 34.664 146.273 34.664C145.313 34.664 144.473 34.448 143.753 34.016C143.049 33.584 142.497 32.992 142.097 32.24C141.713 31.472 141.521 30.592 141.521 29.6ZM137.225 29.6C137.225 30.896 137.441 32.088 137.873 33.176C138.321 34.264 138.945 35.208 139.745 36.008C140.561 36.808 141.521 37.432 142.625 37.88C143.729 38.312 144.945 38.528 146.273 38.528C147.585 38.528 148.793 38.312 149.897 37.88C151.001 37.432 151.953 36.808 152.753 36.008C153.569 35.208 154.193 34.264 154.625 33.176C155.073 32.088 155.297 30.896 155.297 29.6C155.297 28.304 155.073 27.12 154.625 26.048C154.177 24.976 153.545 24.048 152.729 23.264C151.913 22.48 150.953 21.88 149.849 21.464C148.761 21.032 147.569 20.816 146.273 20.816C144.993 20.816 143.801 21.032 142.697 21.464C141.593 21.88 140.633 22.48 139.817 23.264C139.001 24.048 138.361 24.976 137.897 26.048C137.449 27.12 137.225 28.304 137.225 29.6Z" fill="#588593"/>
</svg>
