<svg width="183" height="183" viewBox="0 0 183 183" fill="none" xmlns="http://www.w3.org/2000/svg">
<rect x="1.5" y="1.5" width="179.606" height="179.606" rx="18.5" fill="#FFE2B7" stroke="#DC812D" stroke-width="3"/>
<path d="M34.776 25.2V42H38.832V25.2H34.776ZM37.32 28.536H40.608C41.424 28.536 42.064 28.72 42.528 29.088C42.992 29.456 43.224 29.992 43.224 30.696C43.224 31.384 42.992 31.912 42.528 32.28C42.064 32.648 41.424 32.832 40.608 32.832H37.32V36.168H40.608C42.032 36.168 43.224 35.952 44.184 35.52C45.16 35.072 45.896 34.44 46.392 33.624C46.888 32.792 47.136 31.816 47.136 30.696C47.136 29.544 46.888 28.56 46.392 27.744C45.896 26.928 45.16 26.304 44.184 25.872C43.224 25.424 42.032 25.2 40.608 25.2H37.32V28.536ZM49.2491 25.2V36.48C49.2491 37.536 49.4171 38.456 49.7531 39.24C50.1051 40.024 50.5851 40.672 51.1931 41.184C51.8171 41.68 52.5371 42.056 53.3531 42.312C54.1691 42.568 55.0491 42.696 55.9931 42.696C56.9371 42.696 57.8171 42.568 58.6331 42.312C59.4651 42.056 60.1851 41.68 60.7931 41.184C61.4171 40.672 61.8971 40.024 62.2331 39.24C62.5851 38.456 62.7611 37.536 62.7611 36.48V25.2H58.7051V36.192C58.7051 37.04 58.4811 37.728 58.0331 38.256C57.5851 38.784 56.9051 39.048 55.9931 39.048C55.0971 39.048 54.4251 38.784 53.9771 38.256C53.5291 37.728 53.3051 37.04 53.3051 36.192V25.2H49.2491ZM70.0373 34.392L74.7413 42H79.4933L74.2373 34.392H70.0373ZM65.8373 25.2V42H69.8933V25.2H65.8373ZM68.3813 28.632H71.6693C72.2133 28.632 72.6773 28.72 73.0613 28.896C73.4613 29.072 73.7653 29.328 73.9733 29.664C74.1813 29.984 74.2853 30.376 74.2853 30.84C74.2853 31.304 74.1813 31.704 73.9733 32.04C73.7653 32.36 73.4613 32.608 73.0613 32.784C72.6773 32.944 72.2133 33.024 71.6693 33.024H68.3813V36.168H71.9573C73.3973 36.168 74.5973 35.936 75.5573 35.472C76.5173 35.008 77.2453 34.368 77.7413 33.552C78.2373 32.72 78.4853 31.768 78.4853 30.696C78.4853 29.608 78.2373 28.656 77.7413 27.84C77.2453 27.008 76.5173 26.36 75.5573 25.896C74.5973 25.432 73.3973 25.2 71.9573 25.2H68.3813V28.632ZM83.7043 42H92.1763V38.664H83.7043V42ZM83.7043 28.536H92.1763V25.2H83.7043V28.536ZM83.7043 34.8H91.6963V31.536H83.7043V34.8ZM81.0163 25.2V42H84.9043V25.2H81.0163ZM100.273 28.824H104.881V42H108.937V28.824H113.569V25.2H100.273V28.824ZM117.734 42H126.206V38.664H117.734V42ZM117.734 28.536H126.206V25.2H117.734V28.536ZM117.734 34.8H125.726V31.536H117.734V34.8ZM115.046 25.2V42H118.934V25.2H115.046ZM131.787 38.76H140.667L140.403 35.664H132.075L131.787 38.76ZM136.179 31.368L138.555 36.816L138.411 37.848L140.427 42H145.035L136.179 24.144L127.347 42H131.931L134.019 37.68L133.827 36.792L136.179 31.368Z" fill="#DC812D"/>
<g clip-path="url(#clip0_61_363)">
<path d="M116.7 171.2H75.2999C70.6999 171.2 66.8 167.7 66.3 163.1L57.7 73.8H133.2L125.6 163C125.2 167.6 121.3 171.2 116.7 171.2Z" fill="white" stroke="#E18C82" stroke-miterlimit="10"/>
<path opacity="0.5" d="M116.5 171.2H75.2C70.6 171.2 66.7 167.7 66.2 163.1L60 98.9999C69.1 104.5 81.6 105.4 90.9 102.4C103.9 98.0999 117.8 92.6999 130.9 98.9999L125.5 162.9C125.1 167.6 121.2 171.2 116.5 171.2Z" fill="#E18C82"/>
<path d="M133.1 67.6H132.6C132.3 65.8 130.8 64.5 128.9 64.5H60.4C58.5 64.5 57 65.8 56.7 67.6H56.2C54.7 67.6 53.5 68.8 53.5 70.3V71.1C53.5 72.6 54.7 73.8 56.2 73.8H133.1C134.6 73.8 135.8 72.6 135.8 71.1V70.3C135.8 68.8 134.6 67.6 133.1 67.6Z" fill="#E18C82" stroke="#E18C82" stroke-miterlimit="10"/>
<path d="M99.3 104.3C107.2 105.1 108.9 100.1 116 98.7C119.3 98 124.3 98.9 127.1 100.7" stroke="white" stroke-width="2" stroke-miterlimit="10" stroke-linecap="round"/>
<path d="M90.0999 155.1C91.5999 152.8 94.8999 150.9 97.6999 150.1C100.3 149.3 104 149.6 106.7 149.9C105.9 150 105.1 152 104.9 152.7C103.7 156.3 102.1 159.5 99.3999 162.2C96.0999 165.5 88.7999 166.6 88.7999 166.6C88.7999 166.6 86.8999 160.2 90.0999 155.1Z" fill="#E18C82"/>
<path d="M89 166.5C89.1 164.7 89.7 162.9 90.6 161.4C91.5 159.8 92.7 158.4 94 157.1C96.7 154.6 99.9 152.9 103.2 151.6C100.2 153.6 97.2 155.5 94.7 157.9C92.1 160.2 90 163.1 89 166.5Z" fill="white"/>
</g>
<defs>
<clipPath id="clip0_61_363">
<rect width="83.3" height="107.7" fill="white" transform="translate(53 64)"/>
</clipPath>
</defs>
</svg>
