<svg width="183" height="183" viewBox="0 0 183 183" fill="none" xmlns="http://www.w3.org/2000/svg">
<rect x="1.5" y="1.5" width="179.606" height="179.606" rx="18.5" fill="#F0FFC5" stroke="#838970" stroke-width="3"/>
<path d="M33.624 34.096L30.792 36.136C31.176 36.936 31.712 37.672 32.4 38.344C33.088 39.016 33.896 39.552 34.824 39.952C35.768 40.336 36.784 40.528 37.872 40.528C38.656 40.528 39.416 40.408 40.152 40.168C40.904 39.944 41.568 39.608 42.144 39.16C42.736 38.712 43.2 38.16 43.536 37.504C43.888 36.832 44.064 36.072 44.064 35.224C44.064 34.52 43.952 33.896 43.728 33.352C43.504 32.808 43.192 32.328 42.792 31.912C42.408 31.496 41.96 31.144 41.448 30.856C40.936 30.552 40.384 30.288 39.792 30.064C39.008 29.792 38.336 29.536 37.776 29.296C37.232 29.056 36.808 28.792 36.504 28.504C36.216 28.216 36.072 27.88 36.072 27.496C36.072 27.128 36.224 26.824 36.528 26.584C36.832 26.328 37.272 26.2 37.848 26.2C38.28 26.2 38.68 26.288 39.048 26.464C39.432 26.624 39.776 26.856 40.08 27.16C40.4 27.448 40.68 27.792 40.92 28.192L44.016 26.464C43.728 25.888 43.312 25.32 42.768 24.76C42.224 24.2 41.536 23.736 40.704 23.368C39.888 23 38.92 22.816 37.8 22.816C36.712 22.816 35.72 23.008 34.824 23.392C33.944 23.76 33.24 24.304 32.712 25.024C32.2 25.744 31.944 26.6 31.944 27.592C31.944 28.424 32.096 29.136 32.4 29.728C32.704 30.304 33.088 30.8 33.552 31.216C34.016 31.616 34.504 31.944 35.016 32.2C35.544 32.456 36.008 32.656 36.408 32.8C37.224 33.104 37.88 33.376 38.376 33.616C38.872 33.856 39.232 34.112 39.456 34.384C39.68 34.64 39.792 34.984 39.792 35.416C39.792 35.928 39.6 36.336 39.216 36.64C38.832 36.928 38.344 37.072 37.752 37.072C37.192 37.072 36.656 36.952 36.144 36.712C35.648 36.472 35.184 36.128 34.752 35.68C34.336 35.232 33.96 34.704 33.624 34.096ZM50.736 31.432L55.32 38.44L59.928 31.432L60.936 40H65.208L62.496 22.36L55.32 32.608L48.168 22.36L45.456 40H49.728L50.736 31.432ZM70.767 31.6C70.767 30.608 70.959 29.736 71.343 28.984C71.743 28.216 72.295 27.616 72.999 27.184C73.719 26.752 74.559 26.536 75.519 26.536C76.495 26.536 77.335 26.752 78.039 27.184C78.743 27.616 79.287 28.216 79.671 28.984C80.055 29.736 80.247 30.608 80.247 31.6C80.247 32.592 80.047 33.472 79.647 34.24C79.263 34.992 78.711 35.584 77.991 36.016C77.287 36.448 76.463 36.664 75.519 36.664C74.559 36.664 73.719 36.448 72.999 36.016C72.295 35.584 71.743 34.992 71.343 34.24C70.959 33.472 70.767 32.592 70.767 31.6ZM66.471 31.6C66.471 32.896 66.687 34.088 67.119 35.176C67.567 36.264 68.191 37.208 68.991 38.008C69.807 38.808 70.767 39.432 71.871 39.88C72.975 40.312 74.191 40.528 75.519 40.528C76.831 40.528 78.039 40.312 79.143 39.88C80.247 39.432 81.199 38.808 81.999 38.008C82.815 37.208 83.439 36.264 83.871 35.176C84.319 34.088 84.543 32.896 84.543 31.6C84.543 30.304 84.319 29.12 83.871 28.048C83.423 26.976 82.791 26.048 81.975 25.264C81.159 24.48 80.199 23.88 79.095 23.464C78.007 23.032 76.815 22.816 75.519 22.816C74.239 22.816 73.047 23.032 71.943 23.464C70.839 23.88 69.879 24.48 69.063 25.264C68.247 26.048 67.607 26.976 67.143 28.048C66.695 29.12 66.471 30.304 66.471 31.6ZM90.1179 31.6C90.1179 30.608 90.3099 29.736 90.6939 28.984C91.0939 28.216 91.6459 27.616 92.3499 27.184C93.0699 26.752 93.9099 26.536 94.8699 26.536C95.8459 26.536 96.6859 26.752 97.3899 27.184C98.0939 27.616 98.6379 28.216 99.0219 28.984C99.4059 29.736 99.5979 30.608 99.5979 31.6C99.5979 32.592 99.3979 33.472 98.9979 34.24C98.6139 34.992 98.0619 35.584 97.3419 36.016C96.6379 36.448 95.8139 36.664 94.8699 36.664C93.9099 36.664 93.0699 36.448 92.3499 36.016C91.6459 35.584 91.0939 34.992 90.6939 34.24C90.3099 33.472 90.1179 32.592 90.1179 31.6ZM85.8219 31.6C85.8219 32.896 86.0379 34.088 86.4699 35.176C86.9179 36.264 87.5419 37.208 88.3419 38.008C89.1579 38.808 90.1179 39.432 91.2219 39.88C92.3259 40.312 93.5419 40.528 94.8699 40.528C96.1819 40.528 97.3899 40.312 98.4939 39.88C99.5979 39.432 100.55 38.808 101.35 38.008C102.166 37.208 102.79 36.264 103.222 35.176C103.67 34.088 103.894 32.896 103.894 31.6C103.894 30.304 103.67 29.12 103.222 28.048C102.774 26.976 102.142 26.048 101.326 25.264C100.51 24.48 99.5499 23.88 98.4459 23.464C97.3579 23.032 96.1659 22.816 94.8699 22.816C93.5899 22.816 92.3979 23.032 91.2939 23.464C90.1899 23.88 89.2299 24.48 88.4139 25.264C87.5979 26.048 86.9579 26.976 86.4939 28.048C86.0459 29.12 85.8219 30.304 85.8219 31.6ZM103.726 26.824H108.334V40H112.39V26.824H117.022V23.2H103.726V26.824ZM119.627 32.968H132.347V29.32H119.627V32.968ZM129.779 23.2V40H133.835V23.2H129.779ZM118.499 23.2V40H122.555V23.2H118.499ZM146.439 23.2L143.151 29.512L139.863 23.2H135.207L141.087 33.184V40H145.215V33.16L151.095 23.2H146.439Z" fill="#838970"/>
<g clip-path="url(#clip0_61_392)">
<path d="M109.094 172.531H73.75C69.25 172.531 65.5937 169.065 65.3125 164.567L61.4688 94.384H120.531L117.531 164.473C117.344 168.971 113.594 172.531 109.094 172.531Z" fill="#F6B2AF" stroke="#E18C82" stroke-miterlimit="10"/>
<path d="M67.4688 149.2C67.4688 148.075 67.8437 146.857 68.6875 145.826C69.5312 144.796 70.6562 144.234 71.9687 144.046C73.2812 143.859 74.5 144.046 75.625 144.515C76.75 144.889 77.6875 145.452 78.625 145.92C79.5625 146.389 80.5 146.764 81.3438 147.045C82.1875 147.232 83.3125 147.326 84.25 147.419C86.2187 147.419 88.2813 147.045 90.25 146.389C91.2813 146.108 92.2187 145.733 93.1562 145.264C94.0937 144.889 95.125 144.421 96.25 144.046C97.375 143.671 98.7812 143.671 100 144.046C101.219 144.421 102.25 144.983 103.094 145.452C104.031 145.92 104.875 146.295 105.812 146.482L106.562 146.576H107.312C107.781 146.576 108.25 146.576 108.719 146.389C110.594 145.92 112 144.234 113.875 142.922C114.063 142.734 114.344 142.828 114.531 143.015C114.625 143.203 114.625 143.484 114.437 143.671C113.594 144.327 112.937 145.077 112.094 145.826C111.25 146.576 110.313 147.326 109.188 147.701C108.625 147.888 107.969 147.982 107.406 148.075H106.562L105.719 147.982C104.5 147.888 103.375 147.419 102.344 146.951C101.312 146.482 100.469 146.014 99.5312 145.826C98.6875 145.639 97.8437 145.733 96.9062 146.014C96.0625 146.295 95.0312 146.764 94.0937 147.232C93.0625 147.701 92.0313 148.075 91 148.45C88.8438 149.2 86.5937 149.668 84.25 149.668C83.0312 149.668 82 149.575 80.7813 149.2C79.6563 148.919 78.5313 148.356 77.5938 147.794C75.625 146.67 73.9375 145.639 72.25 145.733C71.4062 145.826 70.4687 146.108 69.8125 146.764C69.1562 147.326 68.6875 148.263 68.5 149.2C68.4062 149.481 68.2188 149.575 67.9375 149.575C67.5625 149.668 67.4688 149.481 67.4688 149.2Z" fill="#E18C82"/>
<path d="M80.0312 139.08C80.7812 140.204 82.0937 140.954 83.4062 141.329C84.7187 141.704 86.2187 141.797 87.625 141.61C90.4375 141.235 92.9687 139.83 95.4062 138.237C96.625 137.487 97.8437 136.55 99.625 136.081C100.469 135.894 101.5 135.8 102.437 136.081C103.469 136.363 104.219 136.925 104.781 137.3C105.344 137.768 105.812 137.956 106.375 138.237C106.937 138.424 107.5 138.611 108.062 138.705C109.281 138.986 110.5 138.986 111.906 138.705C112.187 138.705 112.469 138.893 112.469 139.08C112.469 139.267 112.469 139.361 112.375 139.455C111.25 140.673 109.469 141.235 107.781 141.235C106.937 141.235 106.094 141.048 105.25 140.767C104.406 140.485 103.656 139.923 103.094 139.455C102.531 138.986 102.062 138.705 101.594 138.518C101.125 138.33 100.656 138.33 100.094 138.424C98.9687 138.611 97.6562 139.174 96.3437 139.83C93.625 141.048 90.7187 142.078 87.7187 142.359C84.7187 142.547 81.7187 141.891 79 140.111C78.625 139.83 78.5312 139.361 78.8125 138.986C79.0937 138.611 79.5625 138.518 79.9375 138.799C79.8437 138.986 79.9375 139.08 80.0312 139.08Z" fill="#E18C82"/>
<path d="M67.4688 136.831C68.7813 136.175 69.8125 135.613 71.0313 135.144C72.25 134.676 73.4688 134.207 74.7813 134.02C76.1875 133.833 77.5938 133.926 78.9063 134.301C80.2188 134.77 81.4375 135.238 82 136.831C82.0938 137.206 81.9063 137.487 81.625 137.581C81.625 137.581 81.625 137.581 81.5313 137.581C79.8438 137.955 78.9063 137.206 77.875 136.644C76.8438 136.081 75.9063 135.519 74.6875 135.144C73.5625 134.863 72.25 134.863 71.0313 135.238C69.9063 135.613 68.7813 136.456 68.2188 137.581C68.0313 137.862 67.6563 138.049 67.375 137.862C67.0938 137.674 66.9063 137.3 67.0938 137.018C67.1875 137.018 67.375 136.925 67.4688 136.831Z" fill="#E18C82"/>
<path d="M90.9062 129.522C91.75 131.021 93.7188 131.115 95.4063 130.74C96.1563 130.553 97.0938 130.178 97.9375 129.71C98.7813 129.241 99.625 128.679 100.563 128.21C102.438 127.18 104.594 126.524 106.844 126.711C107.969 126.805 109 127.086 109.938 127.648C110.875 128.117 111.812 128.679 112.562 129.428C112.75 129.616 112.75 129.897 112.562 130.084C112.375 130.272 112.094 130.272 112 130.084C110.5 128.96 108.625 128.304 106.844 128.21C104.969 128.21 103.281 128.866 101.594 129.803L98.9687 131.302C98.0312 131.771 97.0938 132.333 95.875 132.521C94.75 132.708 93.5312 132.614 92.5 132.24C91.9375 132.052 91.375 131.677 91 131.209C90.5312 130.74 90.25 130.178 90.1562 129.616C90.1562 129.335 90.3437 129.147 90.5312 129.054C90.625 129.241 90.8125 129.335 90.9062 129.522Z" fill="#E18C82"/>
<path d="M66.8125 162.599C67.2813 161.475 68.125 160.538 69.0625 159.882C70.0938 159.226 71.125 158.757 72.25 158.57C73.375 158.382 74.5938 158.289 75.7188 158.382C76.9375 158.476 77.9688 158.851 79.0938 159.226C81.25 159.975 83.125 161.1 85 162.131C86.875 163.068 88.8438 164.005 90.8125 164.66C92.7813 165.316 94.75 165.691 96.7188 165.504C97.6563 165.41 98.5938 165.223 99.4375 164.848C99.9063 164.66 100.281 164.473 100.75 164.192C101.219 163.911 101.594 163.63 102.063 163.349C103 162.786 103.938 162.224 105.063 161.662C105.625 161.381 106.188 161.194 106.844 161.006C107.5 160.819 108.25 160.725 109 160.819C109.375 160.819 109.844 161.006 110.219 161.1C110.594 161.287 110.875 161.475 111.156 161.662C111.719 162.037 112.188 162.412 112.563 162.599C112.75 162.693 112.844 162.786 113.031 162.88C113.125 162.974 113.313 162.974 113.406 162.974C113.688 162.974 113.688 162.974 113.594 162.974C114.344 162.412 115.469 162.599 116.031 163.349C116.594 164.098 116.406 165.223 115.656 165.785C115.188 166.16 114.625 166.347 114.156 166.347C113.688 166.441 113.219 166.347 112.75 166.253C112.375 166.16 112 165.972 111.625 165.785C111.25 165.598 110.969 165.41 110.688 165.223C109.656 164.379 109.094 163.911 108.625 163.911C108.063 163.817 107.125 164.005 106.281 164.379C105.344 164.754 104.5 165.223 103.563 165.785C103.094 166.066 102.625 166.347 102.063 166.628C101.5 166.909 100.938 167.19 100.375 167.378C99.25 167.753 98.0313 168.034 96.8125 168.034C94.375 168.127 92.125 167.565 89.9688 166.722C87.8125 165.879 85.9375 164.848 83.9688 163.817C82.0938 162.693 80.3125 161.568 78.3438 160.819C77.4063 160.444 76.375 160.069 75.4375 159.975C74.4063 159.788 73.4688 159.788 72.4375 159.975C71.4063 160.163 70.4688 160.444 69.625 161.006C68.7813 161.568 68.125 162.224 67.6563 163.068C67.4688 163.349 67.1875 163.442 66.9063 163.349C66.8125 163.255 66.7188 162.88 66.8125 162.599Z" fill="#E18C82"/>
<path d="M92.4062 154.447C92.875 153.978 93.4375 153.604 93.9062 153.323C94.4687 153.041 94.9375 152.854 95.5 152.667C96.5312 152.386 97.5625 152.292 98.5937 152.386C100.562 152.479 102.437 153.041 104.219 153.604C106 154.072 107.781 154.541 109.562 154.26C111.25 153.978 112.937 152.948 113.219 151.542C113.312 150.98 113.875 150.605 114.531 150.699C115.094 150.793 115.469 151.355 115.375 152.011C115.375 152.104 115.281 152.292 115.281 152.386L115.187 152.479C114.531 153.51 113.687 154.26 112.656 154.728C111.719 155.197 110.687 155.384 109.656 155.478C108.625 155.571 107.687 155.384 106.75 155.197C105.812 155.009 104.875 154.728 104.031 154.447C102.25 153.978 100.469 153.323 98.6875 153.604C97.8437 153.697 97 153.978 96.3437 154.447C95.6875 154.916 95.2187 155.571 95.2187 156.227C95.125 157.164 94.2812 157.914 93.3437 157.82C92.4062 157.727 91.6562 156.883 91.75 155.946C91.75 155.478 91.9375 155.103 92.3125 154.822L92.4062 154.447Z" fill="#E18C82"/>
<path d="M61.4688 94.384L62.2187 107.783H65.5938C68.5 107.783 63.4375 123.057 68.6875 123.057C74.125 123.057 67.2812 111.531 72.625 108.346C72.625 108.346 76.8437 106.003 80.0312 107.783C86.6875 111.625 72.25 135.519 85.5625 135.519C100 135.519 83.6875 111.813 89.7813 107.783C92.9688 105.628 94.9375 110.501 100.375 108.533C108.344 105.722 95.5 130.647 106 130.647C116.969 130.647 105.437 110.688 109.844 106.565C111.531 104.972 119.875 107.877 119.875 107.877L120.438 94.4777H61.4688V94.384Z" fill="white" stroke="#E18C82" stroke-miterlimit="10"/>
<path d="M116.219 131.302L115.188 155.384" stroke="white" stroke-width="2" stroke-miterlimit="10" stroke-linecap="round"/>
<path d="M107.219 78.9231H74.7812C67.4687 78.9231 61.4688 84.92 61.4688 92.2288V94.3839H120.531V92.2288C120.531 84.92 114.531 78.9231 107.219 78.9231Z" fill="white" stroke="#E18C82" stroke-miterlimit="10"/>
<path d="M98.125 63.4624H83.875C76.4687 63.4624 70.5625 69.4593 70.5625 76.7681V78.9232H111.531V76.7681C111.531 69.3656 105.531 63.4624 98.125 63.4624Z" fill="white" stroke="#E18C82" stroke-miterlimit="10"/>
<path d="M93.25 51.4685H88.8438C84.1563 51.4685 80.4062 55.2166 80.4062 59.9017V63.3687H101.781V59.9017C101.688 55.2166 97.9375 51.4685 93.25 51.4685Z" fill="white" stroke="#E18C82" stroke-miterlimit="10"/>
<path d="M70.2813 80.0477C70.0938 82.0154 72.8126 80.7036 74.5001 81.6406C76.1876 82.5776 77.4063 83.9832 79.0001 85.0139C80.5938 86.0446 83.0313 87.169 84.5313 86.0446C85.2813 85.4824 85.5626 83.9832 86.2188 83.3272C87.8126 81.7343 90.2501 81.5469 92.4063 82.0154C94.5626 82.4839 96.5313 83.5146 98.6876 84.1706C101.5 85.0139 104.5 85.0139 107.313 84.358C108.531 84.0769 109.656 83.6083 110.5 82.765C111.344 81.9217 111.625 80.4225 110.875 79.3918C110.781 79.2043 110.594 79.1106 110.313 79.1106C103.188 78.9232 71.7813 78.6421 70.2813 80.0477Z" fill="#E18C82" stroke="#E18C82" stroke-miterlimit="10"/>
<path d="M80.125 63.7434C79.4687 64.493 80.0312 65.7112 80.875 66.1797C81.8125 66.5545 82.8437 66.2734 83.7812 65.9923C84.7187 65.6174 85.5625 65.1489 86.5937 65.1489C88.4687 65.1489 89.875 66.6482 91.0937 67.96C92.3125 69.2718 94 70.6774 95.7812 70.3025C96.8125 70.1151 97.8437 69.2718 98.875 69.6466C99.9062 70.1151 100 71.5207 100 72.6451C99.9062 74.1443 99.8125 75.6436 99.7187 77.2365C99.7187 77.705 99.7187 78.2672 99.9062 78.7357C100.094 79.2042 100.656 79.4853 101.125 79.2979C101.5 79.1105 101.687 78.642 101.781 78.1735C102.062 76.3932 101.781 74.5191 101.125 72.8325C100.844 72.0829 100.375 71.427 100.281 70.6774C100.187 69.9277 100.375 68.9907 101.031 68.6159C101.5 68.3348 101.969 68.3348 102.437 68.1474C103.656 67.4915 103.469 65.6174 102.437 64.7741C101.406 63.9308 99.9062 63.8371 98.5937 63.7434" fill="#E18C82"/>
<path d="M80.125 63.7434C79.4687 64.493 80.0312 65.7112 80.875 66.1797C81.8125 66.5545 82.8437 66.2734 83.7812 65.9923C84.7187 65.6174 85.5625 65.1489 86.5937 65.1489C88.4687 65.1489 89.875 66.6482 91.0937 67.96C92.3125 69.2718 94 70.6774 95.7812 70.3025C96.8125 70.1151 97.8437 69.2718 98.875 69.6466C99.9062 70.1151 100 71.5207 100 72.6451C99.9062 74.1443 99.8125 75.6436 99.7187 77.2365C99.7187 77.705 99.7187 78.2672 99.9062 78.7357C100.094 79.2042 100.656 79.4853 101.125 79.2979C101.5 79.1105 101.687 78.642 101.781 78.1735C102.062 76.3932 101.781 74.5191 101.125 72.8325C100.844 72.0829 100.375 71.427 100.281 70.6774C100.187 69.9277 100.375 68.9907 101.031 68.6159C101.5 68.3348 101.969 68.3348 102.437 68.1474C103.656 67.4915 103.469 65.6174 102.437 64.7741C101.406 63.9308 99.9062 63.8371 98.5937 63.7434" stroke="#E18C82" stroke-miterlimit="10"/>
<path d="M86.5938 51.8434C85.9375 51.7497 85.1875 52.4056 85.0938 52.593C84.9063 53.1552 85.4688 53.7174 85.9375 53.9985C86.4063 54.2796 87.0625 54.2796 87.7188 54.1859C88.2813 54.1859 88.9375 54.1859 89.4063 54.467C90.5313 55.0292 90.8125 56.4348 91.75 57.2781C92.875 58.3088 94.75 58.2151 95.7813 57.0907C95.9688 56.9033 96.0625 56.7159 96.3438 56.6222C96.8125 56.4348 97.4688 56.997 97.8438 56.6222C97.9375 56.5285 98.0313 56.3411 98.125 56.2474C98.5 55.4041 97.75 52.9678 96.5313 52.0308C95.5 51.3749 86.5938 51.7497 86.5938 51.8434Z" fill="#E18C82" stroke="#E18C82" stroke-miterlimit="10"/>
<path d="M96.8125 61.4946C97.0938 61.9631 97.75 62.1505 98.2188 61.8694C98.5 61.682 98.6875 61.4009 98.7813 61.1198C98.875 60.8387 98.875 60.4639 98.875 60.1828C98.875 59.4332 98.5938 57.7465 97.4688 58.4961C96.7188 59.1521 96.25 60.6513 96.8125 61.4946Z" fill="#E18C82"/>
</g>
<defs>
<clipPath id="clip0_61_392">
<rect width="60" height="122" fill="white" transform="translate(61 51)"/>
</clipPath>
</defs>
</svg>
