<svg width="183" height="183" viewBox="0 0 183 183" fill="none" xmlns="http://www.w3.org/2000/svg">
<rect x="2" y="2" width="178.606" height="178.606" rx="18" fill="white" stroke="#FFCBC5" stroke-width="4"/>
<path d="M44.624 36.096L41.792 38.136C42.176 38.936 42.712 39.672 43.4 40.344C44.088 41.016 44.896 41.552 45.824 41.952C46.768 42.336 47.784 42.528 48.872 42.528C49.656 42.528 50.416 42.408 51.152 42.168C51.904 41.944 52.568 41.608 53.144 41.16C53.736 40.712 54.2 40.16 54.536 39.504C54.888 38.832 55.064 38.072 55.064 37.224C55.064 36.52 54.952 35.896 54.728 35.352C54.504 34.808 54.192 34.328 53.792 33.912C53.408 33.496 52.96 33.144 52.448 32.856C51.936 32.552 51.384 32.288 50.792 32.064C50.008 31.792 49.336 31.536 48.776 31.296C48.232 31.056 47.808 30.792 47.504 30.504C47.216 30.216 47.072 29.88 47.072 29.496C47.072 29.128 47.224 28.824 47.528 28.584C47.832 28.328 48.272 28.2 48.848 28.2C49.28 28.2 49.68 28.288 50.048 28.464C50.432 28.624 50.776 28.856 51.08 29.16C51.4 29.448 51.68 29.792 51.92 30.192L55.016 28.464C54.728 27.888 54.312 27.32 53.768 26.76C53.224 26.2 52.536 25.736 51.704 25.368C50.888 25 49.92 24.816 48.8 24.816C47.712 24.816 46.72 25.008 45.824 25.392C44.944 25.76 44.24 26.304 43.712 27.024C43.2 27.744 42.944 28.6 42.944 29.592C42.944 30.424 43.096 31.136 43.4 31.728C43.704 32.304 44.088 32.8 44.552 33.216C45.016 33.616 45.504 33.944 46.016 34.2C46.544 34.456 47.008 34.656 47.408 34.8C48.224 35.104 48.88 35.376 49.376 35.616C49.872 35.856 50.232 36.112 50.456 36.384C50.68 36.64 50.792 36.984 50.792 37.416C50.792 37.928 50.6 38.336 50.216 38.64C49.832 38.928 49.344 39.072 48.752 39.072C48.192 39.072 47.656 38.952 47.144 38.712C46.648 38.472 46.184 38.128 45.752 37.68C45.336 37.232 44.96 36.704 44.624 36.096ZM73.016 34.776L68.408 24.36L63.848 34.776L60.536 25.2H55.736L63.008 42.984L68.408 32.856L73.832 42.984L81.104 25.2H76.28L73.016 34.776ZM85.3143 42H93.7863V38.664H85.3143V42ZM85.3143 28.536H93.7863V25.2H85.3143V28.536ZM85.3143 34.8H93.3063V31.536H85.3143V34.8ZM82.6263 25.2V42H86.5143V25.2H82.6263ZM99.4152 42H107.887V38.664H99.4152V42ZM99.4152 28.536H107.887V25.2H99.4152V28.536ZM99.4152 34.8H107.407V31.536H99.4152V34.8ZM96.7272 25.2V42H100.615V25.2H96.7272ZM109.148 28.824H113.756V42H117.812V28.824H122.444V25.2H109.148V28.824ZM125.769 36.096L122.937 38.136C123.321 38.936 123.857 39.672 124.545 40.344C125.233 41.016 126.041 41.552 126.969 41.952C127.913 42.336 128.929 42.528 130.017 42.528C130.801 42.528 131.561 42.408 132.297 42.168C133.049 41.944 133.713 41.608 134.289 41.16C134.881 40.712 135.345 40.16 135.681 39.504C136.033 38.832 136.209 38.072 136.209 37.224C136.209 36.52 136.097 35.896 135.873 35.352C135.649 34.808 135.337 34.328 134.937 33.912C134.553 33.496 134.105 33.144 133.593 32.856C133.081 32.552 132.529 32.288 131.937 32.064C131.153 31.792 130.481 31.536 129.921 31.296C129.377 31.056 128.953 30.792 128.649 30.504C128.361 30.216 128.217 29.88 128.217 29.496C128.217 29.128 128.369 28.824 128.673 28.584C128.977 28.328 129.417 28.2 129.993 28.2C130.425 28.2 130.825 28.288 131.193 28.464C131.577 28.624 131.921 28.856 132.225 29.16C132.545 29.448 132.825 29.792 133.065 30.192L136.161 28.464C135.873 27.888 135.457 27.32 134.913 26.76C134.369 26.2 133.681 25.736 132.849 25.368C132.033 25 131.065 24.816 129.945 24.816C128.857 24.816 127.865 25.008 126.969 25.392C126.089 25.76 125.385 26.304 124.857 27.024C124.345 27.744 124.089 28.6 124.089 29.592C124.089 30.424 124.241 31.136 124.545 31.728C124.849 32.304 125.233 32.8 125.697 33.216C126.161 33.616 126.649 33.944 127.161 34.2C127.689 34.456 128.153 34.656 128.553 34.8C129.369 35.104 130.025 35.376 130.521 35.616C131.017 35.856 131.377 36.112 131.601 36.384C131.825 36.64 131.937 36.984 131.937 37.416C131.937 37.928 131.745 38.336 131.361 38.64C130.977 38.928 130.489 39.072 129.897 39.072C129.337 39.072 128.801 38.952 128.289 38.712C127.793 38.472 127.329 38.128 126.897 37.68C126.481 37.232 126.105 36.704 125.769 36.096Z" fill="#E18C82"/>
<g clip-path="url(#clip0_61_393)">
<path d="M101.6 86.0999L43 116.7L141.5 109.3C141.5 109.4 129.1 88.6999 101.6 86.0999Z" fill="#E18C82"/>
<path d="M140.1 149.7L44.8 156.6C43.8 156.7 43 155.9 43 155V118.2C43 117.4 43.6 116.7 44.5 116.6L139.8 109.7C140.7 109.6 141.5 110.4 141.5 111.3V148.1C141.5 148.9 140.9 149.6 140.1 149.7Z" fill="#FFE8A4"/>
<path d="M51.3 122.7L135.4 116.7" stroke="#FFFDF0" stroke-width="8" stroke-miterlimit="10" stroke-linecap="round"/>
<path d="M51.4 135.5L135.5 129.6" stroke="#FFFDF0" stroke-width="8" stroke-miterlimit="10" stroke-linecap="round"/>
<path d="M51.3 148.4L135.4 142.4" stroke="#FFFDF0" stroke-width="8" stroke-miterlimit="10" stroke-linecap="round"/>
<path d="M101.9 86.5999C128.5 88.6999 141 109.4 141 109.4" stroke="#E18C82" stroke-miterlimit="10" stroke-linecap="round"/>
<path d="M43.5 116.7C43.5 119 44.4 120.1 46.2 120.7C50.3 121.9 54.6 120.9 58.8 120.1C66.8 118.6 74.4 123.1 82.6 122.8C94.6 122.4 93.3 133.2 98.7 135.4C102.1 136.8 107.5 137.2 111.9 132.6C115.2 129.1 115.3 123.8 118.1 119.9C120.1 117.1 123.4 115.4 126.8 115.2C128.8 115.1 130.8 115.5 132.8 115.7C134.8 115.9 136.9 115.7 138.6 114.6C140.3 113.5 141 112.1 140.8 109.4" fill="white"/>
<path d="M43.5 116.7C43.5 119 44.4 120.1 46.2 120.7C50.3 121.9 54.6 120.9 58.8 120.1C66.8 118.6 74.4 123.1 82.6 122.8C94.6 122.4 93.3 133.2 98.7 135.4C102.1 136.8 107.5 137.2 111.9 132.6C115.2 129.1 115.3 123.8 118.1 119.9C120.1 117.1 123.4 115.4 126.8 115.2C128.8 115.1 130.8 115.5 132.8 115.7C134.8 115.9 136.9 115.7 138.6 114.6C140.3 113.5 141 112.1 140.8 109.4" stroke="#FFE8A4" stroke-miterlimit="10"/>
<path d="M109.8 103.3C115.599 103.3 120.3 98.5988 120.3 92.7998C120.3 87.0008 115.599 82.2998 109.8 82.2998C104.001 82.2998 99.3 87.0008 99.3 92.7998C99.3 98.5988 104.001 103.3 109.8 103.3Z" fill="#C65A59"/>
<path d="M117.4 94.4999C118.339 94.4999 119.1 93.7387 119.1 92.7999C119.1 91.861 118.339 91.0999 117.4 91.0999C116.461 91.0999 115.7 91.861 115.7 92.7999C115.7 93.7387 116.461 94.4999 117.4 94.4999Z" fill="white"/>
<path d="M108.4 86.2998C108.4 87.3998 109 88.1998 110 88.4998C111 88.7998 112.4 88.5998 113.2 87.8998" stroke="#9ACDD4" stroke-width="0.75" stroke-miterlimit="10" stroke-linecap="round"/>
<path d="M110.1 88.3999C110.6 86.4999 111.3 84.6999 112.4 83.0999C113.5 81.4999 115 80.1999 116.6 79.3999" stroke="#9ACDD4" stroke-width="0.75" stroke-miterlimit="10" stroke-linecap="round"/>
<path d="M103.4 132.8C103.6 133 103.9 133.2 104.4 133.2C104.8 133.3 105.3 133.3 105.7 133.2C106.6 133.1 107.5 132.8 108.3 132.2C109.1 131.7 109.7 130.9 110.3 130.1C110.9 129.3 111.4 128.4 111.8 127.5C111.9 127.2 112.2 127.1 112.5 127.3C112.7 127.4 112.9 127.7 112.8 127.9C112.4 128.9 111.9 129.9 111.3 130.8C110.7 131.7 110 132.6 109.1 133.3C108.2 134 107.1 134.4 105.9 134.6C105.3 134.7 104.7 134.7 104.1 134.6C103.5 134.5 102.8 134.3 102.2 133.8C101.9 133.5 101.9 133 102.2 132.7C102.5 132.4 103 132.5 103.4 132.8Z" fill="#FFE8A4"/>
</g>
<defs>
<clipPath id="clip0_61_393">
<rect width="98.5" height="77.6" fill="white" transform="translate(43 79)"/>
</clipPath>
</defs>
</svg>
